<svg width="48" height="49" viewBox="0 0 48 49" fill="none" xmlns="http://www.w3.org/2000/svg">
<path fill-rule="evenodd" clip-rule="evenodd" d="M24 48.5C37.2548 48.5 48 37.7548 48 24.5C48 11.2452 37.2548 0.5 24 0.5C10.7452 0.5 0 11.2452 0 24.5C0 37.7548 10.7452 48.5 24 48.5Z" fill="#F5365C" fill-opacity="0.29"/>
<path d="M33.7354 19.7301L24.1354 15.2501C24.0496 15.2101 23.9504 15.2101 23.8647 15.2501L14.2647 19.7301C14.152 19.7826 14.08 19.8955 14.08 20.02C14.08 20.1445 14.152 20.2574 14.2647 20.3099L23.8647 24.7899C23.9075 24.8101 23.9536 24.82 24 24.82C24.0464 24.82 24.0925 24.8101 24.1354 24.7899L27.52 23.2104V31.4376L25.9795 33.5941C25.9101 33.6917 25.9005 33.8197 25.9555 33.9266C26.0103 34.0331 26.12 34.1 26.24 34.1H29.44C29.56 34.1 29.6698 34.0331 29.7245 33.9266C29.7792 33.8197 29.7699 33.6917 29.7005 33.5941L28.16 31.4376V22.9118L33.7354 20.3099C33.848 20.2574 33.92 20.1445 33.92 20.02C33.92 19.8955 33.848 19.7826 33.7354 19.7301Z" fill="#F5365C"/>
<path d="M26.88 24.2155L24.4061 25.3701C24.28 25.4286 24.1395 25.46 24 25.46C23.8605 25.46 23.72 25.4286 23.5936 25.3701L17.28 22.4235V27.7C17.28 29.4942 20.2317 30.9 24 30.9C25.0381 30.9 26.0106 30.7902 26.88 30.5979V24.2155Z" fill="#F5365C"/>
<path d="M28.8 23.3195V29.9589C29.9923 29.3842 30.72 28.5902 30.72 27.7V22.4232L28.8 23.3195Z" fill="#F5365C"/>
</svg>
